<svg width="219" height="166" viewBox="0 0 219 166" fill="none" xmlns="http://www.w3.org/2000/svg">
<g opacity="0.1" filter="url(#filter0_b_6_78)">
<path d="M219 81C219 101.481 211.529 121.201 198.091 136.192C184.652 151.182 166.245 160.33 146.573 161.793C126.901 163.256 107.426 156.927 92.0675 144.078C76.709 131.23 66.6075 112.817 63.7964 92.5453C60.9853 72.2737 65.6733 51.6488 76.9168 34.8223C88.1603 17.9958 105.124 6.21699 124.395 1.85684C143.665 -2.50331 163.81 0.87895 180.775 11.3228C197.74 21.7666 210.266 38.4966 215.831 58.1451L141 81H219Z" fill="#FF0000"/>
</g>
<g opacity="0.1" filter="url(#filter1_b_6_78)">
<path d="M0 83C0 103.881 7.53874 123.995 21.1129 139.331C34.687 154.667 53.2991 164.097 73.2376 165.742C93.1761 167.387 112.976 161.125 128.689 148.206C144.401 135.286 154.872 116.658 158.013 96.0356C161.155 75.4136 156.735 54.3131 145.637 36.9419C134.538 19.5707 117.575 7.20536 98.1318 2.3116C78.6882 -2.58215 58.1922 0.35532 40.7309 10.5383C23.2697 20.7212 10.1264 37.4013 3.92196 57.2524L79.5 83H0Z" fill="#FF0000"/>
</g>
<path d="M182 83C182 125.67 148.728 160 108 160C67.2719 160 34 125.67 34 83C34 40.3304 67.2719 6 108 6C148.728 6 182 40.3304 182 83Z" fill="#FF0000" stroke="#840A0A" stroke-width="8"/>
<path d="M106.781 51.375C108.781 51.875 109.781 52.9062 109.781 54.4688L109.969 56.9062C109.969 57.2812 107.406 57.7812 102.281 58.4062L102 58.7812V59.1562C102 59.8438 102.656 62.9375 103.969 68.4375V69.9375L103.688 74.0625C105.062 83.0625 105.75 93.4375 105.75 105.188H105.938C111.312 105.188 114 105.781 114 106.969C114.562 110.156 114.844 112.156 114.844 112.969C114.844 114.156 112.781 114.75 108.656 114.75H106.875L106.406 114.844L105.938 114.75H104.906C101.719 114.75 100.125 114.469 100.125 113.906C99.5625 110.906 99.2812 108.719 99.2812 107.344V105.938L99.6562 103.875V103.688C99.2812 102.188 99.0938 101.156 99.0938 100.594V99.9375C98.7812 93.8125 98.625 89.5625 98.625 87.1875H98.4375L79.0312 86.7188L78.6562 87.1875L78.75 90.9375L78.6562 101.531V104.719C78.6562 106.281 78.8438 107.875 79.2188 109.5L78.6562 111.281C79.0312 112.031 79.2188 112.594 79.2188 112.969C79.2188 114.781 78 115.688 75.5625 115.688C71.375 115.688 68.7188 115.312 67.5938 114.562C65.2812 113.938 64.125 113 64.125 111.75L64.875 107.719C65.125 107.531 65.5625 107.438 66.1875 107.438H68.625C70.125 107.438 70.875 107.25 70.875 106.875L70.9688 105.938V101.344C70.9688 91.1562 70.75 83.4062 70.3125 78.0938L70.4062 73.9688C70.1562 73.9688 69.8438 69.3438 69.4688 60.0938L68.7188 59.8125H68.625C63.625 59.8125 61.125 59.5312 61.125 58.9688L60.1875 56.8125C60.1875 55.3125 62.6875 54.5625 67.6875 54.5625C70.5625 54.375 73.2188 54.2812 75.6562 54.2812L76.875 54.5625L76.4062 55.7812L76.6875 56.4375C76.25 56.875 76.0312 57.3125 76.0312 57.75V58.3125L77.625 77.5312C77.625 78.5938 77.875 79.125 78.375 79.125L97.9688 79.7812L98.1562 79.4062L97.7812 74.625C97.7812 74.25 97.9688 73.75 98.3438 73.125L97.9688 72.6562V72.4688L98.1562 72.0938V71.9062L97.7812 69.2812V66.2812C97.2812 62.7812 96.9062 60.8438 96.6562 60.4688C96.0938 60.4688 95.4375 58.5625 94.6875 54.75C94.875 53.25 95.0312 52.5 95.1562 52.5C100.031 52.1875 103.906 51.8125 106.781 51.375ZM97.0312 53.7188L96.8438 53.9062V54.0938C96.9062 54.3438 97.125 54.4688 97.5 54.4688H97.9688C98.5312 54.4688 98.8438 54.3438 98.9062 54.0938C98.8438 53.8438 98.5938 53.7188 98.1562 53.7188H97.0312ZM97.9688 55.5L97.7812 55.7812V55.9688L97.9688 56.1562L98.3438 55.9688V55.5H97.9688ZM62.5312 56.8125L62.3438 56.4375L62.1562 56.625V56.8125H62.5312ZM74.3438 61.5938H74.1562V61.875L74.3438 62.1562H74.7188V61.875L74.3438 61.5938ZM72 62.25H71.5312L71.4375 63.375L71.5312 63.8438H72V63V62.9062V62.25ZM102.281 69.6562L102 69.8438V70.125L102.281 70.3125L102.562 70.125V69.8438L102.281 69.6562ZM102.188 71.9062L102.281 72.2812H102.562L102.656 72V71.1562L102.562 70.9688C102.312 70.9688 102.188 71.2812 102.188 71.9062ZM72.1875 79.6875H72V80.0625C72 80.5 72.125 80.75 72.375 80.8125H72.4688L72.75 80.625C72.75 80.1875 72.5625 79.875 72.1875 79.6875ZM78.2812 81H78.0938V81.1875L78.375 81.4688H78.6562V81.375L78.2812 81ZM91.7812 81H88.6875V81.1875L91.2188 81.4688H91.7812L91.9688 81.1875L91.7812 81ZM72.375 81.5625L72.1875 81.75V81.9375H72.375L72.6562 81.6562V81.5625H72.375ZM92.8125 84.2812L92.9062 84.375H94.2188L94.5938 84.0938L94.5 83.9062H93.75C93.1875 83.9062 92.875 84.0312 92.8125 84.2812ZM99.2812 90L99.0938 90.2812V90.5625L99.375 90.8438H99.5625V90.2812L99.2812 90ZM99.2812 91.4062L99.0938 91.5938V92.625H99.2812L99.5625 92.4375V91.5938L99.2812 91.4062ZM102.188 103.031L101.719 102.656V103.312L101.906 103.5L102.188 103.312V103.031ZM76.875 102.938H76.5V103.031C76.5625 103.469 76.6875 103.688 76.875 103.688H77.1562L76.875 102.938ZM70.125 110.062H69.75V110.25H70.125V110.062ZM77.4375 111.562L77.0625 112.031V112.125L77.3438 112.5H77.4375L78 112.031V111.844L77.7188 111.562H77.4375ZM112.688 112.688L112.5 112.781V113.156H113.062V112.781L112.781 112.688H112.688ZM109.969 112.781L109.594 113.156L109.781 113.531H110.25C110.688 113.531 110.938 113.406 111 113.156L110.812 112.781H109.969ZM119.25 49.7812L120.281 49.5C125.281 49.5 129.594 50.0625 133.219 51.1875H134.812H136.031L136.219 51.6562L136.125 57.0938C136.062 57.4688 135.844 57.6562 135.469 57.6562L134.344 56.5312L131.812 55.9688H130.969L130.406 56.1562V56.5312C131.281 56.9062 131.844 57.0938 132.094 57.0938V57.2812C132.094 57.5312 131.375 57.7188 129.938 57.8438L129.375 76.125V78.0938L129.281 103.219V104.719C129.281 105.281 131.031 105.562 134.531 105.562H152.531L155.531 105.75C155.906 105.75 156.219 104.031 156.469 100.594C156.656 99.7188 156.938 99.2812 157.312 99.2812C161 99.4062 162.844 99.75 162.844 100.312C162.594 100.875 162.219 101.156 161.719 101.156V101.438C162.344 102.062 162.656 102.594 162.656 103.031C162.656 104.469 162.438 106.375 162 108.75V110.156L162.094 110.625C161.719 111.312 161.531 111.938 161.531 112.5C161.406 112.5 161.156 112.906 160.781 113.719C159.406 114.219 158.062 114.469 156.75 114.469H156.375L148.312 113.719H147.844L129.375 114.469L116.531 113.25C116.031 112.875 115.781 112.469 115.781 112.031C116.281 108.344 117.062 106.5 118.125 106.5C118.438 106.188 119.656 105.938 121.781 105.75C122.594 103.75 122.625 94.6875 121.875 78.5625C122.25 74.1875 122.562 67.6875 122.812 59.0625V58.125C122.812 57.1875 122.156 56.7188 120.844 56.7188L120 56.5312V56.25C121.125 55.6875 122 55.4062 122.625 55.4062V55.0312L120.469 54.75H119.156V55.125C119.406 55.125 119.531 55.2188 119.531 55.4062C119.344 55.7188 119.062 55.875 118.688 55.875H118.312C117.688 55.625 117.375 54.9062 117.375 53.7188V53.4375C117.375 52 117.781 51.0938 118.594 50.7188C118.781 50.7188 119 50.4062 119.25 49.7812ZM120 52.6875L119.719 52.875V53.0625H120.188L120.469 52.7812V52.6875H120ZM132.469 52.7812L132.094 53.0625V53.25L132.75 53.4375V53.5312L132.469 53.7188L130.594 53.625L130.5 53.7188V54.1875L130.781 54.4688H132.656C133.656 54.4688 134.156 54.125 134.156 53.4375C133.719 53 133.25 52.7812 132.75 52.7812H132.469ZM125.531 53.4375C125.781 53.875 126.469 54.0938 127.594 54.0938H128.25L128.719 53.625C128.156 53.25 127.594 53.0625 127.031 53.0625H126.281C125.781 53.0625 125.531 53.1875 125.531 53.4375ZM127.688 55.125L127.219 55.3125V55.4062L127.406 55.7812H128.062L128.625 55.5938V55.3125L128.062 55.125H127.688ZM127.312 57.0938L127.219 57.2812V58.5938C127.281 59.4062 127.438 59.8125 127.688 59.8125L128.25 59.4375V58.7812C128.188 57.6562 127.875 57.0938 127.312 57.0938ZM126.656 75.6562H126.375C125.875 78.2812 125.844 80 126.281 80.8125C126.594 81.375 126.812 81.1875 126.938 80.25L127.031 77.1562C126.969 76.1562 126.844 75.6562 126.656 75.6562ZM161.062 102.844H160.875C160.375 104.156 160.125 104.906 160.125 105.094L159.375 109.031V109.406L159.656 109.688H159.938C160.75 109.312 161.219 107.531 161.344 104.344C161.281 103.344 161.188 102.844 161.062 102.844ZM126.281 103.219H125.812V103.5C125.5 104.438 125.344 105.125 125.344 105.562C125.344 106.438 125.562 106.969 126 107.156H126.375C126.625 107.156 126.75 106.25 126.75 104.438V104.062C126.75 103.625 126.594 103.344 126.281 103.219ZM152.062 106.406H151.125V106.688C151.125 106.875 151.531 107 152.344 107.062C152.344 107.562 152.906 107.844 154.031 107.906L155.812 107.719V107.344C154.625 107.344 153.375 107.031 152.062 106.406ZM149.438 107.344H147V107.438C147.062 107.625 147.375 107.719 147.938 107.719H150V107.438L149.438 107.344ZM117.562 108.75C118.062 108.75 118.312 108.531 118.312 108.094V107.906H118.125C117.75 107.969 117.562 108.25 117.562 108.75ZM126.844 108.562H126.375V109.031C127.5 109.219 133.125 109.562 143.25 110.062L143.438 109.969V109.781L126.844 108.562ZM117.75 109.406L117.188 109.5V109.781L117.469 110.062H117.75L118.031 109.781V109.688L117.75 109.406ZM148.688 110.25L148.5 110.438V110.625L149.344 110.812H150.656V110.625C150.656 110.375 150.438 110.25 150 110.25H148.688ZM152.719 111.469V111.562H153C153.625 111.562 154.25 111.312 154.875 110.812C154.812 110.562 154.562 110.438 154.125 110.438C153.875 110.438 153.406 110.781 152.719 111.469ZM155.438 111.844L154.031 111.938V112.031C154.531 112.531 155.156 112.781 155.906 112.781H156.188C156.5 112.781 156.781 112.656 157.031 112.406C157.344 112.656 157.688 112.781 158.062 112.781H158.812C159.5 112.781 159.875 112.656 159.938 112.406V112.312C159.938 112 158.969 111.844 157.031 111.844H155.438ZM129.844 112.688L127.781 112.781V112.969C127.781 113.406 129.25 113.688 132.188 113.812C134.125 113.812 135.719 113.625 136.969 113.25V112.969C134.344 112.781 132 112.688 129.938 112.688H129.844ZM125.906 112.969H125.719V113.25H125.906V112.969ZM140.531 112.969L139.969 113.156V113.531H140.531L141.656 113.25V112.969H140.531Z" fill="white"/>
<defs>
<filter id="filter0_b_6_78" x="12.8998" y="-50.1002" width="256.2" height="262.2" filterUnits="userSpaceOnUse" color-interpolation-filters="sRGB">
<feFlood flood-opacity="0" result="BackgroundImageFix"/>
<feGaussianBlur in="BackgroundImageFix" stdDeviation="25.05"/>
<feComposite in2="SourceAlpha" operator="in" result="effect1_backgroundBlur_6_78"/>
<feBlend mode="normal" in="SourceGraphic" in2="effect1_backgroundBlur_6_78" result="shape"/>
</filter>
<filter id="filter1_b_6_78" x="-50.1" y="-50.1002" width="259.2" height="266.2" filterUnits="userSpaceOnUse" color-interpolation-filters="sRGB">
<feFlood flood-opacity="0" result="BackgroundImageFix"/>
<feGaussianBlur in="BackgroundImageFix" stdDeviation="25.05"/>
<feComposite in2="SourceAlpha" operator="in" result="effect1_backgroundBlur_6_78"/>
<feBlend mode="normal" in="SourceGraphic" in2="effect1_backgroundBlur_6_78" result="shape"/>
</filter>
</defs>
</svg>
